<svg xmlns="http://www.w3.org/2000/svg" viewBox="0 0 996.0 100.0" width="996.0" height="100.0" fill="none" stroke="#FFFFFF" stroke-width="15.0" stroke-linecap="butt" stroke-linejoin="miter" stroke-miterlimit="2.2"><g transform="translate(0 0) scale(1.0)"><path d="M 7.5,7.5 H 66.5 M 37,7.5 V 92.5" transform="translate(0.0 0)"/><path d="M 7.5,7.5 V 92.5" transform="translate(92.0 0)"/><path d="M 7.5,7.5 H 66.5 M 37,7.5 V 92.5" transform="translate(125.0 0)"/><path d="M 7.5,92.5 L 43,7.5 L 78.5,92.5 M 20.24,62.0 H 65.76" transform="translate(217.0 0)"/><path d="M 7.5,92.5 V 7.5 L 80.5,92.5 V 7.5" transform="translate(321.0 0)"/><path d="M 7.5,7.5 V 92.5" transform="translate(427.0 0)"/><path d="M 7.5,50 A 38.0,42.5 0 1 1 83.5,50 A 38.0,42.5 0 1 1 7.5,50 Z" transform="translate(460.0 0)"/></g><g transform="translate(613.0 0) scale(1.0)"><path d="M 7.5,7.5 L 43,92.5 L 78.5,7.5" transform="translate(0.0 0)"/><path d="M 64.5,7.5 H 7.5 M 7.5,7.5 V 92.5 M 7.5,92.5 H 64.5 M 7.5,50 H 54" transform="translate(104.0 0)"/><path d="M 7.5,92.5 V 7.5 H 45 A 22.25,22.25 0 0 1 45,52 H 7.5 M 41,52 L 72.5,92.5" transform="translate(194.0 0)"/><path d="M 7.5,50 A 38.0,42.5 0 1 1 83.5,50 A 38.0,42.5 0 1 1 7.5,50 Z" transform="translate(292.0 0)"/></g></svg>